<mxfile host="app.diagrams.net" modified="2024-01-02T14:55:52.828Z" agent="Mozilla/5.0 (Windows NT 10.0; Win64; x64) AppleWebKit/537.36 (KHTML, like Gecko) Chrome/120.0.0.0 Safari/537.36" etag="XBauvMLNg1hHE3jy3WAH" version="22.1.16" type="device">
  <diagram id="AUg71SlQKznTego5lpRN" name="Page-1">
    <mxGraphModel dx="1235" dy="614" grid="1" gridSize="10" guides="1" tooltips="1" connect="1" arrows="1" fold="1" page="1" pageScale="1" pageWidth="3300" pageHeight="2339" math="0" shadow="0">
      <root>
        <mxCell id="0" />
        <mxCell id="1" parent="0" />
        <mxCell id="_RUOFvuEu9h8demV1J9i-14" value="" style="shape=curlyBracket;whiteSpace=wrap;html=1;rounded=1;fontFamily=Libre Baskerville;fontSource=https%3A%2F%2Ffonts.googleapis.com%2Fcss%3Ffamily%3DLibre%2BBaskerville;fontSize=13;fontColor=#000000;strokeColor=#000000;strokeWidth=2.25;fillColor=none;size=0.5;rotation=90;" parent="1" vertex="1">
          <mxGeometry x="120" y="11.5" width="20" height="185" as="geometry" />
        </mxCell>
        <mxCell id="_RUOFvuEu9h8demV1J9i-15" value="" style="shape=curlyBracket;whiteSpace=wrap;html=1;rounded=1;fontFamily=Libre Baskerville;fontSource=https%3A%2F%2Ffonts.googleapis.com%2Fcss%3Ffamily%3DLibre%2BBaskerville;fontSize=13;fontColor=#000000;strokeColor=#000000;strokeWidth=2.25;fillColor=none;size=0.5;rotation=90;" parent="1" vertex="1">
          <mxGeometry x="398.13" y="-52.87" width="20" height="313.75" as="geometry" />
        </mxCell>
        <mxCell id="_RUOFvuEu9h8demV1J9i-16" value="" style="shape=curlyBracket;whiteSpace=wrap;html=1;rounded=1;fontFamily=Libre Baskerville;fontSource=https%3A%2F%2Ffonts.googleapis.com%2Fcss%3Ffamily%3DLibre%2BBaskerville;fontSize=13;fontColor=#000000;strokeColor=#000000;strokeWidth=2.25;fillColor=none;size=0.5;rotation=90;" parent="1" vertex="1">
          <mxGeometry x="725" y="-36" width="20" height="280" as="geometry" />
        </mxCell>
        <mxCell id="_RUOFvuEu9h8demV1J9i-17" value="" style="shape=curlyBracket;whiteSpace=wrap;html=1;rounded=1;fontFamily=Libre Baskerville;fontSource=https%3A%2F%2Ffonts.googleapis.com%2Fcss%3Ffamily%3DLibre%2BBaskerville;fontSize=13;fontColor=#000000;strokeColor=#000000;strokeWidth=2.25;fillColor=none;size=0.5;rotation=90;" parent="1" vertex="1">
          <mxGeometry x="979.5" y="9.5" width="20" height="189" as="geometry" />
        </mxCell>
        <mxCell id="_RUOFvuEu9h8demV1J9i-18" value="&lt;font style=&quot;font-size: 16px;&quot;&gt;Raw Materials&lt;/font&gt;" style="text;html=1;strokeColor=none;fillColor=none;align=center;verticalAlign=middle;whiteSpace=wrap;rounded=0;dashed=1;dashPattern=1 1;fontColor=#000000;fontFamily=Libre Baskerville;fontSource=https%3A%2F%2Ffonts.googleapis.com%2Fcss%3Ffamily%3DLibre%2BBaskerville;fontStyle=1;fontSize=13;" parent="1" vertex="1">
          <mxGeometry x="35" y="49" width="190" height="50" as="geometry" />
        </mxCell>
        <mxCell id="_RUOFvuEu9h8demV1J9i-19" value="&lt;font style=&quot;font-size: 16px;&quot;&gt;Production&lt;/font&gt;" style="text;html=1;strokeColor=none;fillColor=none;align=center;verticalAlign=middle;whiteSpace=wrap;rounded=0;dashed=1;dashPattern=1 1;fontColor=#000000;fontFamily=Libre Baskerville;fontSource=https%3A%2F%2Ffonts.googleapis.com%2Fcss%3Ffamily%3DLibre%2BBaskerville;fontStyle=1;fontSize=13;" parent="1" vertex="1">
          <mxGeometry x="250" y="49" width="320" height="50" as="geometry" />
        </mxCell>
        <mxCell id="_RUOFvuEu9h8demV1J9i-20" value="&lt;font style=&quot;font-size: 16px;&quot;&gt;Use&lt;/font&gt;" style="text;html=1;strokeColor=none;fillColor=none;align=center;verticalAlign=middle;whiteSpace=wrap;rounded=0;dashed=1;dashPattern=1 1;fontColor=#000000;fontFamily=Libre Baskerville;fontSource=https%3A%2F%2Ffonts.googleapis.com%2Fcss%3Ffamily%3DLibre%2BBaskerville;fontStyle=1;fontSize=13;" parent="1" vertex="1">
          <mxGeometry x="590" y="49" width="290" height="50" as="geometry" />
        </mxCell>
        <mxCell id="_RUOFvuEu9h8demV1J9i-21" value="&lt;font style=&quot;font-size: 16px;&quot;&gt;Recycling &amp;amp; &lt;br&gt;End-of-Life&lt;/font&gt;" style="text;html=1;strokeColor=none;fillColor=none;align=center;verticalAlign=middle;whiteSpace=wrap;rounded=0;dashed=1;dashPattern=1 1;fontColor=#000000;fontFamily=Libre Baskerville;fontSource=https%3A%2F%2Ffonts.googleapis.com%2Fcss%3Ffamily%3DLibre%2BBaskerville;fontStyle=1;fontSize=13;" parent="1" vertex="1">
          <mxGeometry x="890" y="49" width="200" height="50" as="geometry" />
        </mxCell>
        <mxCell id="_RUOFvuEu9h8demV1J9i-26" style="rounded=0;orthogonalLoop=1;jettySize=auto;html=1;exitX=1;exitY=0.5;exitDx=0;exitDy=0;entryX=0;entryY=0.5;entryDx=0;entryDy=0;fontFamily=Libre Baskerville;fontSource=https%3A%2F%2Ffonts.googleapis.com%2Fcss%3Ffamily%3DLibre%2BBaskerville;fontSize=16;fontColor=#000000;" parent="1" source="_RUOFvuEu9h8demV1J9i-22" target="_RUOFvuEu9h8demV1J9i-23" edge="1">
          <mxGeometry relative="1" as="geometry" />
        </mxCell>
        <mxCell id="_RUOFvuEu9h8demV1J9i-29" style="edgeStyle=orthogonalEdgeStyle;rounded=0;orthogonalLoop=1;jettySize=auto;html=1;exitX=1;exitY=0.5;exitDx=0;exitDy=0;entryX=0;entryY=0.5;entryDx=0;entryDy=0;fontFamily=Libre Baskerville;fontSource=https%3A%2F%2Ffonts.googleapis.com%2Fcss%3Ffamily%3DLibre%2BBaskerville;fontSize=16;fontColor=#000000;" parent="1" source="_RUOFvuEu9h8demV1J9i-22" edge="1">
          <mxGeometry relative="1" as="geometry">
            <mxPoint x="268.1300000000001" y="244.9999999999999" as="targetPoint" />
            <Array as="points">
              <mxPoint x="230" y="173" />
              <mxPoint x="230" y="245" />
            </Array>
          </mxGeometry>
        </mxCell>
        <mxCell id="_RUOFvuEu9h8demV1J9i-22" value="&lt;b&gt;Added process&lt;/b&gt;" style="rounded=0;whiteSpace=wrap;html=1;fillColor=#DEEBF7;strokeWidth=2.25;fontFamily=Libre Baskerville;fontSource=https%3A%2F%2Ffonts.googleapis.com%2Fcss%3Ffamily%3DLibre%2BBaskerville;" parent="1" vertex="1">
          <mxGeometry x="65" y="148.5" width="130" height="50" as="geometry" />
        </mxCell>
        <mxCell id="_RUOFvuEu9h8demV1J9i-27" style="edgeStyle=none;rounded=0;orthogonalLoop=1;jettySize=auto;html=1;exitX=1;exitY=0.5;exitDx=0;exitDy=0;entryX=0;entryY=0.5;entryDx=0;entryDy=0;fontFamily=Libre Baskerville;fontSource=https%3A%2F%2Ffonts.googleapis.com%2Fcss%3Ffamily%3DLibre%2BBaskerville;fontSize=16;fontColor=#000000;" parent="1" source="_RUOFvuEu9h8demV1J9i-23" target="_RUOFvuEu9h8demV1J9i-24" edge="1">
          <mxGeometry relative="1" as="geometry" />
        </mxCell>
        <mxCell id="_RUOFvuEu9h8demV1J9i-23" value="&lt;b&gt;Decreased process&lt;/b&gt;" style="rounded=0;whiteSpace=wrap;html=1;fillColor=#FBE5D6;strokeWidth=2.25;fontFamily=Libre Baskerville;fontSource=https%3A%2F%2Ffonts.googleapis.com%2Fcss%3Ffamily%3DLibre%2BBaskerville;" parent="1" vertex="1">
          <mxGeometry x="268.13" y="148.5" width="130" height="50" as="geometry" />
        </mxCell>
        <mxCell id="_RUOFvuEu9h8demV1J9i-33" style="edgeStyle=orthogonalEdgeStyle;rounded=0;orthogonalLoop=1;jettySize=auto;html=1;exitX=1;exitY=0.5;exitDx=0;exitDy=0;entryX=0;entryY=0.5;entryDx=0;entryDy=0;fontFamily=Libre Baskerville;fontSource=https%3A%2F%2Ffonts.googleapis.com%2Fcss%3Ffamily%3DLibre%2BBaskerville;fontSize=16;fontColor=#000000;" parent="1" source="_RUOFvuEu9h8demV1J9i-24" target="_RUOFvuEu9h8demV1J9i-31" edge="1">
          <mxGeometry relative="1" as="geometry">
            <Array as="points">
              <mxPoint x="580" y="174" />
              <mxPoint x="580" y="195" />
            </Array>
          </mxGeometry>
        </mxCell>
        <mxCell id="_RUOFvuEu9h8demV1J9i-24" value="&lt;b&gt;Decreased process&lt;/b&gt;" style="rounded=0;whiteSpace=wrap;html=1;fillColor=#FBE5D6;strokeWidth=2.25;fontFamily=Libre Baskerville;fontSource=https%3A%2F%2Ffonts.googleapis.com%2Fcss%3Ffamily%3DLibre%2BBaskerville;" parent="1" vertex="1">
          <mxGeometry x="418.13" y="148.5" width="130" height="50" as="geometry" />
        </mxCell>
        <mxCell id="_RUOFvuEu9h8demV1J9i-32" style="edgeStyle=orthogonalEdgeStyle;rounded=0;orthogonalLoop=1;jettySize=auto;html=1;exitX=1;exitY=0.5;exitDx=0;exitDy=0;entryX=0;entryY=0.5;entryDx=0;entryDy=0;fontFamily=Libre Baskerville;fontSource=https%3A%2F%2Ffonts.googleapis.com%2Fcss%3Ffamily%3DLibre%2BBaskerville;fontSize=16;fontColor=#000000;" parent="1" source="_RUOFvuEu9h8demV1J9i-30" target="_RUOFvuEu9h8demV1J9i-31" edge="1">
          <mxGeometry relative="1" as="geometry">
            <Array as="points">
              <mxPoint x="580" y="245" />
              <mxPoint x="580" y="195" />
            </Array>
          </mxGeometry>
        </mxCell>
        <mxCell id="_RUOFvuEu9h8demV1J9i-30" value="&lt;b&gt;Increased process&lt;/b&gt;" style="rounded=0;whiteSpace=wrap;html=1;fillColor=#E2F0D9;strokeWidth=2.25;fontFamily=Libre Baskerville;fontSource=https%3A%2F%2Ffonts.googleapis.com%2Fcss%3Ffamily%3DLibre%2BBaskerville;" parent="1" vertex="1">
          <mxGeometry x="268.13" y="220" width="130" height="50" as="geometry" />
        </mxCell>
        <mxCell id="_RUOFvuEu9h8demV1J9i-35" style="edgeStyle=orthogonalEdgeStyle;rounded=0;orthogonalLoop=1;jettySize=auto;html=1;exitX=1;exitY=0.5;exitDx=0;exitDy=0;fontFamily=Libre Baskerville;fontSource=https%3A%2F%2Ffonts.googleapis.com%2Fcss%3Ffamily%3DLibre%2BBaskerville;fontSize=16;fontColor=#000000;" parent="1" source="_RUOFvuEu9h8demV1J9i-31" target="_RUOFvuEu9h8demV1J9i-34" edge="1">
          <mxGeometry relative="1" as="geometry" />
        </mxCell>
        <mxCell id="_RUOFvuEu9h8demV1J9i-31" value="&lt;b&gt;Increased process&lt;/b&gt;" style="rounded=0;whiteSpace=wrap;html=1;fillColor=#E2F0D9;strokeWidth=2.25;fontFamily=Libre Baskerville;fontSource=https%3A%2F%2Ffonts.googleapis.com%2Fcss%3Ffamily%3DLibre%2BBaskerville;" parent="1" vertex="1">
          <mxGeometry x="670" y="170" width="130" height="50" as="geometry" />
        </mxCell>
        <mxCell id="_RUOFvuEu9h8demV1J9i-34" value="&lt;b&gt;Increased process&lt;/b&gt;" style="rounded=0;whiteSpace=wrap;html=1;fillColor=#E2F0D9;strokeWidth=2.25;fontFamily=Libre Baskerville;fontSource=https%3A%2F%2Ffonts.googleapis.com%2Fcss%3Ffamily%3DLibre%2BBaskerville;" parent="1" vertex="1">
          <mxGeometry x="924.5" y="170" width="130" height="50" as="geometry" />
        </mxCell>
        <mxCell id="_RUOFvuEu9h8demV1J9i-37" value="&lt;font style=&quot;font-size: 24px;&quot;&gt;Variant A&lt;/font&gt;" style="text;html=1;strokeColor=none;fillColor=none;align=center;verticalAlign=middle;whiteSpace=wrap;rounded=0;dashed=1;dashPattern=1 1;fontColor=#000000;fontFamily=Libre Baskerville;fontSource=https%3A%2F%2Ffonts.googleapis.com%2Fcss%3Ffamily%3DLibre%2BBaskerville;fontStyle=1;fontSize=24;" parent="1" vertex="1">
          <mxGeometry x="430" width="320" height="50" as="geometry" />
        </mxCell>
        <mxCell id="_RUOFvuEu9h8demV1J9i-71" value="" style="group" parent="1" vertex="1" connectable="0">
          <mxGeometry x="40" y="507" width="1040" height="90" as="geometry" />
        </mxCell>
        <mxCell id="_RUOFvuEu9h8demV1J9i-11" value="&lt;blockquote style=&quot;margin: 0 0 0 40px; border: none; padding: 0px;&quot;&gt;&lt;br&gt;&lt;/blockquote&gt;" style="rounded=0;whiteSpace=wrap;html=1;strokeWidth=2.25;fontFamily=Libre Baskerville;fontSource=https%3A%2F%2Ffonts.googleapis.com%2Fcss%3Ffamily%3DLibre%2BBaskerville;align=center;fillColor=none;" parent="_RUOFvuEu9h8demV1J9i-71" vertex="1">
          <mxGeometry width="1040" height="90" as="geometry" />
        </mxCell>
        <mxCell id="_RUOFvuEu9h8demV1J9i-4" value="&lt;b&gt;Added process&lt;/b&gt;" style="rounded=0;whiteSpace=wrap;html=1;fillColor=#DEEBF7;strokeWidth=2.25;fontFamily=Libre Baskerville;fontSource=https%3A%2F%2Ffonts.googleapis.com%2Fcss%3Ffamily%3DLibre%2BBaskerville;" parent="_RUOFvuEu9h8demV1J9i-71" vertex="1">
          <mxGeometry x="290" y="20" width="130" height="50" as="geometry" />
        </mxCell>
        <mxCell id="_RUOFvuEu9h8demV1J9i-5" value="&lt;b&gt;Decreased process&lt;/b&gt;" style="rounded=0;whiteSpace=wrap;html=1;fillColor=#FBE5D6;strokeWidth=2.25;fontFamily=Libre Baskerville;fontSource=https%3A%2F%2Ffonts.googleapis.com%2Fcss%3Ffamily%3DLibre%2BBaskerville;" parent="_RUOFvuEu9h8demV1J9i-71" vertex="1">
          <mxGeometry x="440" y="20" width="130" height="50" as="geometry" />
        </mxCell>
        <mxCell id="_RUOFvuEu9h8demV1J9i-6" value="&lt;b&gt;Increased process&lt;/b&gt;" style="rounded=0;whiteSpace=wrap;html=1;fillColor=#E2F0D9;strokeWidth=2.25;fontFamily=Libre Baskerville;fontSource=https%3A%2F%2Ffonts.googleapis.com%2Fcss%3Ffamily%3DLibre%2BBaskerville;" parent="_RUOFvuEu9h8demV1J9i-71" vertex="1">
          <mxGeometry x="590" y="20" width="130" height="50" as="geometry" />
        </mxCell>
        <mxCell id="_RUOFvuEu9h8demV1J9i-8" value="&lt;b&gt;Same as baseline&lt;/b&gt;" style="rounded=0;whiteSpace=wrap;html=1;strokeWidth=2.25;fontFamily=Libre Baskerville;fontSource=https%3A%2F%2Ffonts.googleapis.com%2Fcss%3Ffamily%3DLibre%2BBaskerville;" parent="_RUOFvuEu9h8demV1J9i-71" vertex="1">
          <mxGeometry x="740" y="20" width="130" height="50" as="geometry" />
        </mxCell>
        <mxCell id="_RUOFvuEu9h8demV1J9i-9" value="&lt;b&gt;Non-physical effect&lt;/b&gt;" style="rounded=0;whiteSpace=wrap;html=1;strokeWidth=2.25;fontFamily=Libre Baskerville;fontSource=https%3A%2F%2Ffonts.googleapis.com%2Fcss%3Ffamily%3DLibre%2BBaskerville;dashed=1;dashPattern=1 1;" parent="_RUOFvuEu9h8demV1J9i-71" vertex="1">
          <mxGeometry x="890" y="20" width="130" height="50" as="geometry" />
        </mxCell>
        <mxCell id="_RUOFvuEu9h8demV1J9i-10" value="&lt;b&gt;Removed process&lt;/b&gt;" style="rounded=0;whiteSpace=wrap;html=1;strokeWidth=2.25;fontFamily=Libre Baskerville;fontSource=https%3A%2F%2Ffonts.googleapis.com%2Fcss%3Ffamily%3DLibre%2BBaskerville;strokeColor=#D9D9D9;fontColor=#D9D9D9;" parent="_RUOFvuEu9h8demV1J9i-71" vertex="1">
          <mxGeometry x="140" y="20" width="130" height="50" as="geometry" />
        </mxCell>
        <mxCell id="_RUOFvuEu9h8demV1J9i-12" value="Compared to baseline:" style="text;html=1;strokeColor=none;fillColor=none;align=center;verticalAlign=middle;whiteSpace=wrap;rounded=0;dashed=1;dashPattern=1 1;fontColor=#000000;fontFamily=Libre Baskerville;fontSource=https%3A%2F%2Ffonts.googleapis.com%2Fcss%3Ffamily%3DLibre%2BBaskerville;fontStyle=1;fontSize=13;" parent="_RUOFvuEu9h8demV1J9i-71" vertex="1">
          <mxGeometry x="10" y="20" width="110" height="50" as="geometry" />
        </mxCell>
      </root>
    </mxGraphModel>
  </diagram>
</mxfile>
